<svg width="233pt" height="15pt" viewBox="0 0 233 15" xmlns="http://www.w3.org/2000/svg"><g id="fontsvg1641296278965" stroke-linecap="round" fill-rule="evenodd" fill="#000000"><path d="M 216 15 L 213 15 L 213 1.5 L 214.5 1.5 L 214.5 3 L 216 3 L 216 4.5 L 217.5 4.5 L 217.5 6 L 219 6 L 219 4.5 L 220.5 4.5 L 220.5 3 L 222 3 L 222 1.5 L 223.5 1.5 L 223.5 15 L 220.5 15 L 220.5 7.5 L 219 7.5 L 219 9 L 217.5 9 L 217.5 7.5 L 216 7.5 L 216 15 Z M 123 15 L 117 15 L 117 13.5 L 115.5 13.5 L 115.5 12 L 118.5 12 L 118.5 13.5 L 121.5 13.5 L 121.5 10.5 L 117 10.5 L 117 9 L 115.5 9 L 115.5 6 L 117 6 L 117 4.5 L 123 4.5 L 123 6 L 124.5 6 L 124.5 7.5 L 121.5 7.5 L 121.5 6 L 118.5 6 L 118.5 9 L 123 9 L 123 10.5 L 124.5 10.5 L 124.5 13.5 L 123 13.5 L 123 15 Z M 178.5 15 L 172.5 15 L 172.5 13.5 L 171 13.5 L 171 12 L 174 12 L 174 13.5 L 177 13.5 L 177 10.5 L 172.5 10.5 L 172.5 9 L 171 9 L 171 6 L 172.5 6 L 172.5 4.5 L 178.5 4.5 L 178.5 6 L 180 6 L 180 7.5 L 177 7.5 L 177 6 L 174 6 L 174 9 L 178.5 9 L 178.5 10.5 L 180 10.5 L 180 13.5 L 178.5 13.5 L 178.5 15 Z M 9 15 L 0 15 L 0 1.5 L 9 1.5 L 9 3 L 3 3 L 3 7.5 L 7.5 7.5 L 7.5 9 L 3 9 L 3 13.5 L 9 13.5 L 9 15 Z M 82.5 15 L 79.5 15 L 79.5 4.5 L 87 4.5 L 87 6 L 88.5 6 L 88.5 15 L 85.5 15 L 85.5 6 L 82.5 6 L 82.5 15 Z M 112.5 15 L 105 15 L 105 13.5 L 103.5 13.5 L 103.5 4.5 L 106.5 4.5 L 106.5 13.5 L 109.5 13.5 L 109.5 4.5 L 112.5 4.5 L 112.5 15 Z M 166.5 15 L 160.5 15 L 160.5 13.5 L 159 13.5 L 159 6 L 160.5 6 L 160.5 4.5 L 166.5 4.5 L 166.5 6 L 168 6 L 168 10.5 L 162 10.5 L 162 13.5 L 165 13.5 L 165 12 L 168 12 L 168 13.5 L 166.5 13.5 L 166.5 15 Z M 58.5 15 L 54 15 L 54 13.5 L 52.5 13.5 L 52.5 6 L 51 6 L 51 4.5 L 52.5 4.5 L 52.5 1.5 L 55.5 1.5 L 55.5 4.5 L 58.5 4.5 L 58.5 6 L 55.5 6 L 55.5 13.5 L 58.5 13.5 L 58.5 15 Z M 135 15 L 130.5 15 L 130.5 13.5 L 129 13.5 L 129 6 L 127.5 6 L 127.5 4.5 L 129 4.5 L 129 1.5 L 132 1.5 L 132 4.5 L 135 4.5 L 135 6 L 132 6 L 132 13.5 L 135 13.5 L 135 15 Z M 76.5 15 L 70.5 15 L 70.5 13.5 L 72 13.5 L 72 3 L 70.5 3 L 70.5 1.5 L 76.5 1.5 L 76.5 3 L 75 3 L 75 13.5 L 76.5 13.5 L 76.5 15 Z M 100.5 15 L 93 15 L 93 13.5 L 91.5 13.5 L 91.5 6 L 93 6 L 93 4.5 L 97.5 4.5 L 97.5 1.5 L 100.5 1.5 L 100.5 15 Z M 141 15 L 138 15 L 138 4.5 L 145.5 4.5 L 145.5 6 L 147 6 L 147 9 L 144 9 L 144 6 L 141 6 L 141 15 Z M 198 15 L 195 15 L 195 13.5 L 193.5 13.5 L 193.5 12 L 192 12 L 192 4.5 L 193.5 4.5 L 193.5 3 L 195 3 L 195 1.5 L 198 1.5 L 198 3 L 196.5 3 L 196.5 4.5 L 195 4.5 L 195 12 L 196.5 12 L 196.5 13.5 L 198 13.5 L 198 15 Z M 207 15 L 204 15 L 204 3 L 201 3 L 201 1.5 L 210 1.5 L 210 3 L 207 3 L 207 15 Z M 229.5 15 L 226.5 15 L 226.5 13.5 L 228 13.5 L 228 12 L 229.5 12 L 229.5 4.5 L 228 4.5 L 228 3 L 226.5 3 L 226.5 1.5 L 229.5 1.5 L 229.5 3 L 231 3 L 231 4.5 L 232.5 4.5 L 232.5 12 L 231 12 L 231 13.5 L 229.5 13.5 L 229.5 15 Z M 18 15 L 12 15 L 12 13.5 L 13.5 13.5 L 13.5 3 L 12 3 L 12 1.5 L 16.5 1.5 L 16.5 13.5 L 18 13.5 L 18 15 Z M 27 15 L 21 15 L 21 13.5 L 22.5 13.5 L 22.5 3 L 21 3 L 21 1.5 L 25.5 1.5 L 25.5 13.5 L 27 13.5 L 27 15 Z M 46.5 15 L 40.5 15 L 40.5 13.5 L 39 13.5 L 39 6 L 40.5 6 L 40.5 4.5 L 46.5 4.5 L 46.5 6 L 48 6 L 48 13.5 L 46.5 13.5 L 46.5 15 Z M 36 15 L 30 15 L 30 13.5 L 31.5 13.5 L 31.5 6 L 30 6 L 30 4.5 L 34.5 4.5 L 34.5 13.5 L 36 13.5 L 36 15 Z M 156 15 L 150 15 L 150 13.5 L 151.5 13.5 L 151.5 6 L 150 6 L 150 4.5 L 154.5 4.5 L 154.5 13.5 L 156 13.5 L 156 15 Z M 42 13.5 L 45 13.5 L 45 6 L 42 6 L 42 13.5 Z M 94.5 13.5 L 97.5 13.5 L 97.5 6 L 94.5 6 L 94.5 13.5 Z M 34.5 3 L 31.5 3 L 31.5 0 L 34.5 0 L 34.5 3 Z M 154.5 3 L 151.5 3 L 151.5 0 L 154.5 0 L 154.5 3 Z M 162 9 L 165 9 L 165 6 L 162 6 L 162 9 Z" vector-effect="non-scaling-stroke"/></g></svg>
