<svg width="373pt" height="12pt" viewBox="0 0 373 12" xmlns="http://www.w3.org/2000/svg"><g id="fontsvg1641296476524" stroke-linecap="round" fill-rule="evenodd" fill="#000000"><path d="M 316.125 11.25 L 311.625 11.25 L 311.625 10.125 L 310.5 10.125 L 310.5 7.875 L 312.75 7.875 L 312.75 10.125 L 315 10.125 L 315 7.875 L 313.875 7.875 L 313.875 6.75 L 312.75 6.75 L 312.75 5.625 L 311.625 5.625 L 311.625 4.5 L 310.5 4.5 L 310.5 2.25 L 311.625 2.25 L 311.625 1.125 L 316.125 1.125 L 316.125 2.25 L 317.25 2.25 L 317.25 4.5 L 315 4.5 L 315 2.25 L 312.75 2.25 L 312.75 4.5 L 313.875 4.5 L 313.875 5.625 L 315 5.625 L 315 6.75 L 316.125 6.75 L 316.125 7.875 L 317.25 7.875 L 317.25 10.125 L 316.125 10.125 L 316.125 11.25 Z M 334.125 11.25 L 329.625 11.25 L 329.625 10.125 L 328.5 10.125 L 328.5 7.875 L 330.75 7.875 L 330.75 10.125 L 333 10.125 L 333 7.875 L 331.875 7.875 L 331.875 6.75 L 330.75 6.75 L 330.75 5.625 L 329.625 5.625 L 329.625 4.5 L 328.5 4.5 L 328.5 2.25 L 329.625 2.25 L 329.625 1.125 L 334.125 1.125 L 334.125 2.25 L 335.25 2.25 L 335.25 4.5 L 333 4.5 L 333 2.25 L 330.75 2.25 L 330.75 4.5 L 331.875 4.5 L 331.875 5.625 L 333 5.625 L 333 6.75 L 334.125 6.75 L 334.125 7.875 L 335.25 7.875 L 335.25 10.125 L 334.125 10.125 L 334.125 11.25 Z M 371.25 11.25 L 366.75 11.25 L 366.75 10.125 L 365.625 10.125 L 365.625 7.875 L 367.875 7.875 L 367.875 10.125 L 370.125 10.125 L 370.125 7.875 L 369 7.875 L 369 6.75 L 367.875 6.75 L 367.875 5.625 L 366.75 5.625 L 366.75 4.5 L 365.625 4.5 L 365.625 2.25 L 366.75 2.25 L 366.75 1.125 L 371.25 1.125 L 371.25 2.25 L 372.375 2.25 L 372.375 4.5 L 370.125 4.5 L 370.125 2.25 L 367.875 2.25 L 367.875 4.5 L 369 4.5 L 369 5.625 L 370.125 5.625 L 370.125 6.75 L 371.25 6.75 L 371.25 7.875 L 372.375 7.875 L 372.375 10.125 L 371.25 10.125 L 371.25 11.25 Z M 162 11.25 L 159.75 11.25 L 159.75 1.125 L 160.875 1.125 L 160.875 2.25 L 162 2.25 L 162 3.375 L 163.125 3.375 L 163.125 4.5 L 164.25 4.5 L 164.25 3.375 L 165.375 3.375 L 165.375 2.25 L 166.5 2.25 L 166.5 1.125 L 167.625 1.125 L 167.625 11.25 L 165.375 11.25 L 165.375 5.625 L 164.25 5.625 L 164.25 6.75 L 163.125 6.75 L 163.125 5.625 L 162 5.625 L 162 11.25 Z M 216 11.25 L 213.75 11.25 L 213.75 1.125 L 214.875 1.125 L 214.875 2.25 L 216 2.25 L 216 3.375 L 217.125 3.375 L 217.125 4.5 L 218.25 4.5 L 218.25 3.375 L 219.375 3.375 L 219.375 2.25 L 220.5 2.25 L 220.5 1.125 L 221.625 1.125 L 221.625 11.25 L 219.375 11.25 L 219.375 5.625 L 218.25 5.625 L 218.25 6.75 L 217.125 6.75 L 217.125 5.625 L 216 5.625 L 216 11.25 Z M 250.875 11.25 L 248.625 11.25 L 248.625 1.125 L 249.75 1.125 L 249.75 2.25 L 250.875 2.25 L 250.875 3.375 L 252 3.375 L 252 4.5 L 253.125 4.5 L 253.125 3.375 L 254.25 3.375 L 254.25 2.25 L 255.375 2.25 L 255.375 1.125 L 256.5 1.125 L 256.5 11.25 L 254.25 11.25 L 254.25 5.625 L 253.125 5.625 L 253.125 6.75 L 252 6.75 L 252 5.625 L 250.875 5.625 L 250.875 11.25 Z M 357.75 11.25 L 355.5 11.25 L 355.5 1.125 L 356.625 1.125 L 356.625 2.25 L 357.75 2.25 L 357.75 3.375 L 358.875 3.375 L 358.875 4.5 L 360 4.5 L 360 3.375 L 361.125 3.375 L 361.125 2.25 L 362.25 2.25 L 362.25 1.125 L 363.375 1.125 L 363.375 11.25 L 361.125 11.25 L 361.125 5.625 L 360 5.625 L 360 6.75 L 358.875 6.75 L 358.875 5.625 L 357.75 5.625 L 357.75 11.25 Z M 92.25 11.25 L 87.75 11.25 L 87.75 10.125 L 86.625 10.125 L 86.625 9 L 88.875 9 L 88.875 10.125 L 91.125 10.125 L 91.125 7.875 L 87.75 7.875 L 87.75 6.75 L 86.625 6.75 L 86.625 4.5 L 87.75 4.5 L 87.75 3.375 L 92.25 3.375 L 92.25 4.5 L 93.375 4.5 L 93.375 5.625 L 91.125 5.625 L 91.125 4.5 L 88.875 4.5 L 88.875 6.75 L 92.25 6.75 L 92.25 7.875 L 93.375 7.875 L 93.375 10.125 L 92.25 10.125 L 92.25 11.25 Z M 133.875 11.25 L 129.375 11.25 L 129.375 10.125 L 128.25 10.125 L 128.25 9 L 130.5 9 L 130.5 10.125 L 132.75 10.125 L 132.75 7.875 L 129.375 7.875 L 129.375 6.75 L 128.25 6.75 L 128.25 4.5 L 129.375 4.5 L 129.375 3.375 L 133.875 3.375 L 133.875 4.5 L 135 4.5 L 135 5.625 L 132.75 5.625 L 132.75 4.5 L 130.5 4.5 L 130.5 6.75 L 133.875 6.75 L 133.875 7.875 L 135 7.875 L 135 10.125 L 133.875 10.125 L 133.875 11.25 Z M 236.25 11.25 L 231.75 11.25 L 231.75 10.125 L 230.625 10.125 L 230.625 2.25 L 231.75 2.25 L 231.75 1.125 L 236.25 1.125 L 236.25 2.25 L 237.375 2.25 L 237.375 4.5 L 235.125 4.5 L 235.125 2.25 L 232.875 2.25 L 232.875 10.125 L 235.125 10.125 L 235.125 7.875 L 237.375 7.875 L 237.375 10.125 L 236.25 10.125 L 236.25 11.25 Z M 273.375 11.25 L 268.875 11.25 L 268.875 10.125 L 267.75 10.125 L 267.75 1.125 L 270 1.125 L 270 10.125 L 272.25 10.125 L 272.25 1.125 L 274.5 1.125 L 274.5 10.125 L 273.375 10.125 L 273.375 11.25 Z M 6.75 11.25 L 0 11.25 L 0 1.125 L 6.75 1.125 L 6.75 2.25 L 2.25 2.25 L 2.25 5.625 L 5.625 5.625 L 5.625 6.75 L 2.25 6.75 L 2.25 10.125 L 6.75 10.125 L 6.75 11.25 Z M 292.5 11.25 L 285.75 11.25 L 285.75 1.125 L 292.5 1.125 L 292.5 2.25 L 288 2.25 L 288 5.625 L 291.375 5.625 L 291.375 6.75 L 288 6.75 L 288 10.125 L 292.5 10.125 L 292.5 11.25 Z M 353.25 11.25 L 346.5 11.25 L 346.5 1.125 L 353.25 1.125 L 353.25 2.25 L 348.75 2.25 L 348.75 5.625 L 352.125 5.625 L 352.125 6.75 L 348.75 6.75 L 348.75 10.125 L 353.25 10.125 L 353.25 11.25 Z M 297 11.25 L 294.75 11.25 L 294.75 1.125 L 300.375 1.125 L 300.375 2.25 L 301.5 2.25 L 301.5 5.625 L 300.375 5.625 L 300.375 6.75 L 301.5 6.75 L 301.5 11.25 L 299.25 11.25 L 299.25 6.75 L 297 6.75 L 297 11.25 Z M 61.875 11.25 L 59.625 11.25 L 59.625 3.375 L 65.25 3.375 L 65.25 4.5 L 66.375 4.5 L 66.375 11.25 L 64.125 11.25 L 64.125 4.5 L 61.875 4.5 L 61.875 11.25 Z M 84.375 11.25 L 78.75 11.25 L 78.75 10.125 L 77.625 10.125 L 77.625 3.375 L 79.875 3.375 L 79.875 10.125 L 82.125 10.125 L 82.125 3.375 L 84.375 3.375 L 84.375 11.25 Z M 324 11.25 L 321.75 11.25 L 321.75 6.75 L 320.625 6.75 L 320.625 5.625 L 319.5 5.625 L 319.5 1.125 L 321.75 1.125 L 321.75 5.625 L 324 5.625 L 324 1.125 L 326.25 1.125 L 326.25 5.625 L 325.125 5.625 L 325.125 6.75 L 324 6.75 L 324 11.25 Z M 124.875 11.25 L 120.375 11.25 L 120.375 10.125 L 119.25 10.125 L 119.25 4.5 L 120.375 4.5 L 120.375 3.375 L 124.875 3.375 L 124.875 4.5 L 126 4.5 L 126 7.875 L 121.5 7.875 L 121.5 10.125 L 123.75 10.125 L 123.75 9 L 126 9 L 126 10.125 L 124.875 10.125 L 124.875 11.25 Z M 43.875 11.25 L 40.5 11.25 L 40.5 10.125 L 39.375 10.125 L 39.375 4.5 L 38.25 4.5 L 38.25 3.375 L 39.375 3.375 L 39.375 1.125 L 41.625 1.125 L 41.625 3.375 L 43.875 3.375 L 43.875 4.5 L 41.625 4.5 L 41.625 10.125 L 43.875 10.125 L 43.875 11.25 Z M 101.25 11.25 L 97.875 11.25 L 97.875 10.125 L 96.75 10.125 L 96.75 4.5 L 95.625 4.5 L 95.625 3.375 L 96.75 3.375 L 96.75 1.125 L 99 1.125 L 99 3.375 L 101.25 3.375 L 101.25 4.5 L 99 4.5 L 99 10.125 L 101.25 10.125 L 101.25 11.25 Z M 210.375 11.25 L 204.75 11.25 L 204.75 1.125 L 210.375 1.125 L 210.375 2.25 L 211.5 2.25 L 211.5 5.625 L 210.375 5.625 L 210.375 6.75 L 211.5 6.75 L 211.5 10.125 L 210.375 10.125 L 210.375 11.25 Z M 57.375 11.25 L 52.875 11.25 L 52.875 10.125 L 54 10.125 L 54 2.25 L 52.875 2.25 L 52.875 1.125 L 57.375 1.125 L 57.375 2.25 L 56.25 2.25 L 56.25 10.125 L 57.375 10.125 L 57.375 11.25 Z M 75.375 11.25 L 69.75 11.25 L 69.75 10.125 L 68.625 10.125 L 68.625 4.5 L 69.75 4.5 L 69.75 3.375 L 73.125 3.375 L 73.125 1.125 L 75.375 1.125 L 75.375 11.25 Z M 105.75 11.25 L 103.5 11.25 L 103.5 3.375 L 109.125 3.375 L 109.125 4.5 L 110.25 4.5 L 110.25 6.75 L 108 6.75 L 108 4.5 L 105.75 4.5 L 105.75 11.25 Z M 148.5 11.25 L 146.25 11.25 L 146.25 10.125 L 145.125 10.125 L 145.125 9 L 144 9 L 144 3.375 L 145.125 3.375 L 145.125 2.25 L 146.25 2.25 L 146.25 1.125 L 148.5 1.125 L 148.5 2.25 L 147.375 2.25 L 147.375 3.375 L 146.25 3.375 L 146.25 9 L 147.375 9 L 147.375 10.125 L 148.5 10.125 L 148.5 11.25 Z M 155.25 11.25 L 153 11.25 L 153 2.25 L 150.75 2.25 L 150.75 1.125 L 157.5 1.125 L 157.5 2.25 L 155.25 2.25 L 155.25 11.25 Z M 172.125 11.25 L 169.875 11.25 L 169.875 10.125 L 171 10.125 L 171 9 L 172.125 9 L 172.125 3.375 L 171 3.375 L 171 2.25 L 169.875 2.25 L 169.875 1.125 L 172.125 1.125 L 172.125 2.25 L 173.25 2.25 L 173.25 3.375 L 174.375 3.375 L 174.375 9 L 173.25 9 L 173.25 10.125 L 172.125 10.125 L 172.125 11.25 Z M 202.5 11.25 L 198 11.25 L 198 10.125 L 199.125 10.125 L 199.125 2.25 L 198 2.25 L 198 1.125 L 202.5 1.125 L 202.5 2.25 L 201.375 2.25 L 201.375 10.125 L 202.5 10.125 L 202.5 11.25 Z M 245.25 11.25 L 240.75 11.25 L 240.75 10.125 L 239.625 10.125 L 239.625 2.25 L 240.75 2.25 L 240.75 1.125 L 245.25 1.125 L 245.25 2.25 L 246.375 2.25 L 246.375 10.125 L 245.25 10.125 L 245.25 11.25 Z M 261 11.25 L 258.75 11.25 L 258.75 1.125 L 264.375 1.125 L 264.375 2.25 L 265.5 2.25 L 265.5 5.625 L 264.375 5.625 L 264.375 6.75 L 261 6.75 L 261 11.25 Z M 281.25 11.25 L 279 11.25 L 279 2.25 L 276.75 2.25 L 276.75 1.125 L 283.5 1.125 L 283.5 2.25 L 281.25 2.25 L 281.25 11.25 Z M 342 11.25 L 339.75 11.25 L 339.75 2.25 L 337.5 2.25 L 337.5 1.125 L 344.25 1.125 L 344.25 2.25 L 342 2.25 L 342 11.25 Z M 13.5 11.25 L 9 11.25 L 9 10.125 L 10.125 10.125 L 10.125 2.25 L 9 2.25 L 9 1.125 L 12.375 1.125 L 12.375 10.125 L 13.5 10.125 L 13.5 11.25 Z M 20.25 11.25 L 15.75 11.25 L 15.75 10.125 L 16.875 10.125 L 16.875 2.25 L 15.75 2.25 L 15.75 1.125 L 19.125 1.125 L 19.125 10.125 L 20.25 10.125 L 20.25 11.25 Z M 34.875 11.25 L 30.375 11.25 L 30.375 10.125 L 29.25 10.125 L 29.25 4.5 L 30.375 4.5 L 30.375 3.375 L 34.875 3.375 L 34.875 4.5 L 36 4.5 L 36 10.125 L 34.875 10.125 L 34.875 11.25 Z M 27 11.25 L 22.5 11.25 L 22.5 10.125 L 23.625 10.125 L 23.625 4.5 L 22.5 4.5 L 22.5 3.375 L 25.875 3.375 L 25.875 10.125 L 27 10.125 L 27 11.25 Z M 117 11.25 L 112.5 11.25 L 112.5 10.125 L 113.625 10.125 L 113.625 4.5 L 112.5 4.5 L 112.5 3.375 L 115.875 3.375 L 115.875 10.125 L 117 10.125 L 117 11.25 Z M 241.875 10.125 L 244.125 10.125 L 244.125 2.25 L 241.875 2.25 L 241.875 10.125 Z M 31.5 10.125 L 33.75 10.125 L 33.75 4.5 L 31.5 4.5 L 31.5 10.125 Z M 70.875 10.125 L 73.125 10.125 L 73.125 4.5 L 70.875 4.5 L 70.875 10.125 Z M 189 6.75 L 183.375 6.75 L 183.375 5.625 L 189 5.625 L 189 6.75 Z M 207 10.125 L 209.25 10.125 L 209.25 6.75 L 207 6.75 L 207 10.125 Z M 207 5.625 L 209.25 5.625 L 209.25 2.25 L 207 2.25 L 207 5.625 Z M 261 5.625 L 263.25 5.625 L 263.25 2.25 L 261 2.25 L 261 5.625 Z M 297 5.625 L 299.25 5.625 L 299.25 2.25 L 297 2.25 L 297 5.625 Z M 25.875 2.25 L 23.625 2.25 L 23.625 0 L 25.875 0 L 25.875 2.25 Z M 115.875 2.25 L 113.625 2.25 L 113.625 0 L 115.875 0 L 115.875 2.25 Z M 121.5 6.75 L 123.75 6.75 L 123.75 4.5 L 121.5 4.5 L 121.5 6.75 Z" vector-effect="non-scaling-stroke"/></g></svg>
