<svg width="291pt" height="19pt" viewBox="0 0 291 19" xmlns="http://www.w3.org/2000/svg"><g id="fontsvg1641296181310" stroke-linecap="round" fill-rule="evenodd" fill="#000000"><path d="M 270 18.75 L 266.25 18.75 L 266.25 1.875 L 268.125 1.875 L 268.125 3.75 L 270 3.75 L 270 5.625 L 271.875 5.625 L 271.875 7.5 L 273.75 7.5 L 273.75 5.625 L 275.625 5.625 L 275.625 3.75 L 277.5 3.75 L 277.5 1.875 L 279.375 1.875 L 279.375 18.75 L 275.625 18.75 L 275.625 9.375 L 273.75 9.375 L 273.75 11.25 L 271.875 11.25 L 271.875 9.375 L 270 9.375 L 270 18.75 Z M 153.75 18.75 L 146.25 18.75 L 146.25 16.875 L 144.375 16.875 L 144.375 15 L 148.125 15 L 148.125 16.875 L 151.875 16.875 L 151.875 13.125 L 146.25 13.125 L 146.25 11.25 L 144.375 11.25 L 144.375 7.5 L 146.25 7.5 L 146.25 5.625 L 153.75 5.625 L 153.75 7.5 L 155.625 7.5 L 155.625 9.375 L 151.875 9.375 L 151.875 7.5 L 148.125 7.5 L 148.125 11.25 L 153.75 11.25 L 153.75 13.125 L 155.625 13.125 L 155.625 16.875 L 153.75 16.875 L 153.75 18.75 Z M 223.125 18.75 L 215.625 18.75 L 215.625 16.875 L 213.75 16.875 L 213.75 15 L 217.5 15 L 217.5 16.875 L 221.25 16.875 L 221.25 13.125 L 215.625 13.125 L 215.625 11.25 L 213.75 11.25 L 213.75 7.5 L 215.625 7.5 L 215.625 5.625 L 223.125 5.625 L 223.125 7.5 L 225 7.5 L 225 9.375 L 221.25 9.375 L 221.25 7.5 L 217.5 7.5 L 217.5 11.25 L 223.125 11.25 L 223.125 13.125 L 225 13.125 L 225 16.875 L 223.125 16.875 L 223.125 18.75 Z M 11.25 18.75 L 0 18.75 L 0 1.875 L 11.25 1.875 L 11.25 3.75 L 3.75 3.75 L 3.75 9.375 L 9.375 9.375 L 9.375 11.25 L 3.75 11.25 L 3.75 16.875 L 11.25 16.875 L 11.25 18.75 Z M 103.125 18.75 L 99.375 18.75 L 99.375 5.625 L 108.75 5.625 L 108.75 7.5 L 110.625 7.5 L 110.625 18.75 L 106.875 18.75 L 106.875 7.5 L 103.125 7.5 L 103.125 18.75 Z M 140.625 18.75 L 131.25 18.75 L 131.25 16.875 L 129.375 16.875 L 129.375 5.625 L 133.125 5.625 L 133.125 16.875 L 136.875 16.875 L 136.875 5.625 L 140.625 5.625 L 140.625 18.75 Z M 208.125 18.75 L 200.625 18.75 L 200.625 16.875 L 198.75 16.875 L 198.75 7.5 L 200.625 7.5 L 200.625 5.625 L 208.125 5.625 L 208.125 7.5 L 210 7.5 L 210 13.125 L 202.5 13.125 L 202.5 16.875 L 206.25 16.875 L 206.25 15 L 210 15 L 210 16.875 L 208.125 16.875 L 208.125 18.75 Z M 73.125 18.75 L 67.5 18.75 L 67.5 16.875 L 65.625 16.875 L 65.625 7.5 L 63.75 7.5 L 63.75 5.625 L 65.625 5.625 L 65.625 1.875 L 69.375 1.875 L 69.375 5.625 L 73.125 5.625 L 73.125 7.5 L 69.375 7.5 L 69.375 16.875 L 73.125 16.875 L 73.125 18.75 Z M 168.75 18.75 L 163.125 18.75 L 163.125 16.875 L 161.25 16.875 L 161.25 7.5 L 159.375 7.5 L 159.375 5.625 L 161.25 5.625 L 161.25 1.875 L 165 1.875 L 165 5.625 L 168.75 5.625 L 168.75 7.5 L 165 7.5 L 165 16.875 L 168.75 16.875 L 168.75 18.75 Z M 95.625 18.75 L 88.125 18.75 L 88.125 16.875 L 90 16.875 L 90 3.75 L 88.125 3.75 L 88.125 1.875 L 95.625 1.875 L 95.625 3.75 L 93.75 3.75 L 93.75 16.875 L 95.625 16.875 L 95.625 18.75 Z M 125.625 18.75 L 116.25 18.75 L 116.25 16.875 L 114.375 16.875 L 114.375 7.5 L 116.25 7.5 L 116.25 5.625 L 121.875 5.625 L 121.875 1.875 L 125.625 1.875 L 125.625 18.75 Z M 176.25 18.75 L 172.5 18.75 L 172.5 5.625 L 181.875 5.625 L 181.875 7.5 L 183.75 7.5 L 183.75 11.25 L 180 11.25 L 180 7.5 L 176.25 7.5 L 176.25 18.75 Z M 247.5 18.75 L 243.75 18.75 L 243.75 16.875 L 241.875 16.875 L 241.875 15 L 240 15 L 240 5.625 L 241.875 5.625 L 241.875 3.75 L 243.75 3.75 L 243.75 1.875 L 247.5 1.875 L 247.5 3.75 L 245.625 3.75 L 245.625 5.625 L 243.75 5.625 L 243.75 15 L 245.625 15 L 245.625 16.875 L 247.5 16.875 L 247.5 18.75 Z M 258.75 18.75 L 255 18.75 L 255 3.75 L 251.25 3.75 L 251.25 1.875 L 262.5 1.875 L 262.5 3.75 L 258.75 3.75 L 258.75 18.75 Z M 286.875 18.75 L 283.125 18.75 L 283.125 16.875 L 285 16.875 L 285 15 L 286.875 15 L 286.875 5.625 L 285 5.625 L 285 3.75 L 283.125 3.75 L 283.125 1.875 L 286.875 1.875 L 286.875 3.75 L 288.75 3.75 L 288.75 5.625 L 290.625 5.625 L 290.625 15 L 288.75 15 L 288.75 16.875 L 286.875 16.875 L 286.875 18.75 Z M 22.5 18.75 L 15 18.75 L 15 16.875 L 16.875 16.875 L 16.875 3.75 L 15 3.75 L 15 1.875 L 20.625 1.875 L 20.625 16.875 L 22.5 16.875 L 22.5 18.75 Z M 33.75 18.75 L 26.25 18.75 L 26.25 16.875 L 28.125 16.875 L 28.125 3.75 L 26.25 3.75 L 26.25 1.875 L 31.875 1.875 L 31.875 16.875 L 33.75 16.875 L 33.75 18.75 Z M 58.125 18.75 L 50.625 18.75 L 50.625 16.875 L 48.75 16.875 L 48.75 7.5 L 50.625 7.5 L 50.625 5.625 L 58.125 5.625 L 58.125 7.5 L 60 7.5 L 60 16.875 L 58.125 16.875 L 58.125 18.75 Z M 45 18.75 L 37.5 18.75 L 37.5 16.875 L 39.375 16.875 L 39.375 7.5 L 37.5 7.5 L 37.5 5.625 L 43.125 5.625 L 43.125 16.875 L 45 16.875 L 45 18.75 Z M 195 18.75 L 187.5 18.75 L 187.5 16.875 L 189.375 16.875 L 189.375 7.5 L 187.5 7.5 L 187.5 5.625 L 193.125 5.625 L 193.125 16.875 L 195 16.875 L 195 18.75 Z M 52.5 16.875 L 56.25 16.875 L 56.25 7.5 L 52.5 7.5 L 52.5 16.875 Z M 118.125 16.875 L 121.875 16.875 L 121.875 7.5 L 118.125 7.5 L 118.125 16.875 Z M 43.125 3.75 L 39.375 3.75 L 39.375 0 L 43.125 0 L 43.125 3.75 Z M 193.125 3.75 L 189.375 3.75 L 189.375 0 L 193.125 0 L 193.125 3.75 Z M 202.5 11.25 L 206.25 11.25 L 206.25 7.5 L 202.5 7.5 L 202.5 11.25 Z" vector-effect="non-scaling-stroke"/></g></svg>
